# Adversarial mesh: bonded duplicate, thin sheet, doorway/window apertures, detached fragment. Metres Y-up.
v 0.2199999988079071 1 0.18000000715255737
v 0.2199999988079071 1 -3.5762786065873797e-9
v 0.2199999988079071 0 0.18000000715255737
v 0.2199999988079071 0 -3.5762786065873797e-9
v 5.9604643443123e-10 1 -3.5762786065873797e-9
v 5.9604643443123e-10 1 0.18000000715255737
v 5.9604643443123e-10 0 -3.5762786065873797e-9
v 5.9604643443123e-10 0 0.18000000715255737
v 5.9604643443123e-10 1 -3.5762786065873797e-9
v 0.2199999988079071 1 -3.5762786065873797e-9
v 5.9604643443123e-10 1 0.18000000715255737
v 0.2199999988079071 1 0.18000000715255737
v 5.9604643443123e-10 0 0.18000000715255737
v 0.2199999988079071 0 0.18000000715255737
v 5.9604643443123e-10 0 -3.5762786065873797e-9
v 0.2199999988079071 0 -3.5762786065873797e-9
v 5.9604643443123e-10 1 0.18000000715255737
v 0.2199999988079071 1 0.18000000715255737
v 5.9604643443123e-10 0 0.18000000715255737
v 0.2199999988079071 0 0.18000000715255737
v 0.2199999988079071 1 -3.5762786065873797e-9
v 5.9604643443123e-10 1 -3.5762786065873797e-9
v 0.2199999988079071 0 -3.5762786065873797e-9
v 5.9604643443123e-10 0 -3.5762786065873797e-9
f 1 3 2
f 3 4 2
f 5 7 6
f 7 8 6
f 9 11 10
f 11 12 10
f 13 15 14
f 15 16 14
f 17 19 18
f 19 20 18
f 21 23 22
f 23 24 22
f 1 3 2
v 0.7200000286102295 1 0.18000000715255737
v 0.7200000286102295 1 -3.5762786065873797e-9
v 0.7200000286102295 0 0.18000000715255737
v 0.7200000286102295 0 -3.5762786065873797e-9
v 0.5 1 -3.5762786065873797e-9
v 0.5 1 0.18000000715255737
v 0.5 0 -3.5762786065873797e-9
v 0.5 0 0.18000000715255737
v 0.5 1 -3.5762786065873797e-9
v 0.7200000286102295 1 -3.5762786065873797e-9
v 0.5 1 0.18000000715255737
v 0.7200000286102295 1 0.18000000715255737
v 0.5 0 0.18000000715255737
v 0.7200000286102295 0 0.18000000715255737
v 0.5 0 -3.5762786065873797e-9
v 0.7200000286102295 0 -3.5762786065873797e-9
v 0.5 1 0.18000000715255737
v 0.7200000286102295 1 0.18000000715255737
v 0.5 0 0.18000000715255737
v 0.7200000286102295 0 0.18000000715255737
v 0.7200000286102295 1 -3.5762786065873797e-9
v 0.5 1 -3.5762786065873797e-9
v 0.7200000286102295 0 -3.5762786065873797e-9
v 0.5 0 -3.5762786065873797e-9
f 25 27 26
f 27 28 26
f 29 31 30
f 31 32 30
f 33 35 34
f 35 36 34
f 37 39 38
f 39 40 38
f 41 43 42
f 43 44 42
f 45 47 46
f 47 48 46
v 0.5 1 0.18000000715255737
v 0.5 1 -3.5762786065873797e-9
v 0.5 0.7200000286102295 0.18000000715255737
v 0.5 0.7200000286102295 -3.5762786065873797e-9
v 0.2199999988079071 1 -3.5762786065873797e-9
v 0.2199999988079071 1 0.18000000715255737
v 0.2199999988079071 0.7200000286102295 -3.5762786065873797e-9
v 0.2199999988079071 0.7200000286102295 0.18000000715255737
v 0.2199999988079071 1 -3.5762786065873797e-9
v 0.5 1 -3.5762786065873797e-9
v 0.2199999988079071 1 0.18000000715255737
v 0.5 1 0.18000000715255737
v 0.2199999988079071 0.7200000286102295 0.18000000715255737
v 0.5 0.7200000286102295 0.18000000715255737
v 0.2199999988079071 0.7200000286102295 -3.5762786065873797e-9
v 0.5 0.7200000286102295 -3.5762786065873797e-9
v 0.2199999988079071 1 0.18000000715255737
v 0.5 1 0.18000000715255737
v 0.2199999988079071 0.7200000286102295 0.18000000715255737
v 0.5 0.7200000286102295 0.18000000715255737
v 0.5 1 -3.5762786065873797e-9
v 0.2199999988079071 1 -3.5762786065873797e-9
v 0.5 0.7200000286102295 -3.5762786065873797e-9
v 0.2199999988079071 0.7200000286102295 -3.5762786065873797e-9
f 49 51 50
f 51 52 50
f 53 55 54
f 55 56 54
f 57 59 58
f 59 60 58
f 61 63 62
f 63 64 62
f 65 67 66
f 67 68 66
f 69 71 70
f 71 72 70
v 0.5 0.07999999821186066 0.18000000715255737
v 0.5 0.07999999821186066 -3.5762786065873797e-9
v 0.5 8.940696516468449e-10 0.18000000715255737
v 0.5 8.940696516468449e-10 -3.5762786065873797e-9
v 0.2199999988079071 0.07999999821186066 -3.5762786065873797e-9
v 0.2199999988079071 0.07999999821186066 0.18000000715255737
v 0.2199999988079071 8.940696516468449e-10 -3.5762786065873797e-9
v 0.2199999988079071 8.940696516468449e-10 0.18000000715255737
v 0.2199999988079071 0.07999999821186066 -3.5762786065873797e-9
v 0.5 0.07999999821186066 -3.5762786065873797e-9
v 0.2199999988079071 0.07999999821186066 0.18000000715255737
v 0.5 0.07999999821186066 0.18000000715255737
v 0.2199999988079071 8.940696516468449e-10 0.18000000715255737
v 0.5 8.940696516468449e-10 0.18000000715255737
v 0.2199999988079071 8.940696516468449e-10 -3.5762786065873797e-9
v 0.5 8.940696516468449e-10 -3.5762786065873797e-9
v 0.2199999988079071 0.07999999821186066 0.18000000715255737
v 0.5 0.07999999821186066 0.18000000715255737
v 0.2199999988079071 8.940696516468449e-10 0.18000000715255737
v 0.5 8.940696516468449e-10 0.18000000715255737
v 0.5 0.07999999821186066 -3.5762786065873797e-9
v 0.2199999988079071 0.07999999821186066 -3.5762786065873797e-9
v 0.5 8.940696516468449e-10 -3.5762786065873797e-9
v 0.2199999988079071 8.940696516468449e-10 -3.5762786065873797e-9
f 73 75 74
f 75 76 74
f 77 79 78
f 79 80 78
f 81 83 82
f 83 84 82
f 85 87 86
f 87 88 86
f 89 91 90
f 91 92 90
f 93 95 94
f 95 96 94
v 0.30000001192092896 0.8500000238418579 0.23999999463558197
v 0.30000001192092896 0.8500000238418579 0.20000000298023224
v 0.30000001192092896 0.15000000596046448 0.23999999463558197
v 0.30000001192092896 0.15000000596046448 0.20000000298023224
v 0.05000000074505806 0.8500000238418579 0.20000000298023224
v 0.05000000074505806 0.8500000238418579 0.23999999463558197
v 0.05000000074505806 0.15000000596046448 0.20000000298023224
v 0.05000000074505806 0.15000000596046448 0.23999999463558197
v 0.05000000074505806 0.8500000238418579 0.20000000298023224
v 0.30000001192092896 0.8500000238418579 0.20000000298023224
v 0.05000000074505806 0.8500000238418579 0.23999999463558197
v 0.30000001192092896 0.8500000238418579 0.23999999463558197
v 0.05000000074505806 0.15000000596046448 0.23999999463558197
v 0.30000001192092896 0.15000000596046448 0.23999999463558197
v 0.05000000074505806 0.15000000596046448 0.20000000298023224
v 0.30000001192092896 0.15000000596046448 0.20000000298023224
v 0.05000000074505806 0.8500000238418579 0.23999999463558197
v 0.30000001192092896 0.8500000238418579 0.23999999463558197
v 0.05000000074505806 0.15000000596046448 0.23999999463558197
v 0.30000001192092896 0.15000000596046448 0.23999999463558197
v 0.30000001192092896 0.8500000238418579 0.20000000298023224
v 0.05000000074505806 0.8500000238418579 0.20000000298023224
v 0.30000001192092896 0.15000000596046448 0.20000000298023224
v 0.05000000074505806 0.15000000596046448 0.20000000298023224
f 97 99 98
f 99 100 98
f 101 103 102
f 103 104 102
f 105 107 106
f 107 108 106
f 109 111 110
f 111 112 110
f 113 115 114
f 115 116 114
f 117 119 118
f 119 120 118
v 0.6600000262260437 0.8500000238418579 0.23999999463558197
v 0.6600000262260437 0.8500000238418579 0.20000000298023224
v 0.6600000262260437 0.15000000596046448 0.23999999463558197
v 0.6600000262260437 0.15000000596046448 0.20000000298023224
v 0.35999998450279236 0.8500000238418579 0.20000000298023224
v 0.35999998450279236 0.8500000238418579 0.23999999463558197
v 0.35999998450279236 0.15000000596046448 0.20000000298023224
v 0.35999998450279236 0.15000000596046448 0.23999999463558197
v 0.35999998450279236 0.8500000238418579 0.20000000298023224
v 0.6600000262260437 0.8500000238418579 0.20000000298023224
v 0.35999998450279236 0.8500000238418579 0.23999999463558197
v 0.6600000262260437 0.8500000238418579 0.23999999463558197
v 0.35999998450279236 0.15000000596046448 0.23999999463558197
v 0.6600000262260437 0.15000000596046448 0.23999999463558197
v 0.35999998450279236 0.15000000596046448 0.20000000298023224
v 0.6600000262260437 0.15000000596046448 0.20000000298023224
v 0.35999998450279236 0.8500000238418579 0.23999999463558197
v 0.6600000262260437 0.8500000238418579 0.23999999463558197
v 0.35999998450279236 0.15000000596046448 0.23999999463558197
v 0.6600000262260437 0.15000000596046448 0.23999999463558197
v 0.6600000262260437 0.8500000238418579 0.20000000298023224
v 0.35999998450279236 0.8500000238418579 0.20000000298023224
v 0.6600000262260437 0.15000000596046448 0.20000000298023224
v 0.35999998450279236 0.15000000596046448 0.20000000298023224
f 121 123 122
f 123 124 122
f 125 127 126
f 127 128 126
f 129 131 130
f 131 132 130
f 133 135 134
f 135 136 134
f 137 139 138
f 139 140 138
f 141 143 142
f 143 144 142
v .36 .15 .24
v .66 .15 .24
v .66 .85 .24
f 145 146 147
v 0.9200000166893005 0.6399999856948853 0.1599999964237213
v 0.9200000166893005 0.6399999856948853 0.11999999731779099
v 0.9200000166893005 0.6000000238418579 0.1599999964237213
v 0.9200000166893005 0.6000000238418579 0.11999999731779099
v 0.8799999952316284 0.6399999856948853 0.11999999731779099
v 0.8799999952316284 0.6399999856948853 0.1599999964237213
v 0.8799999952316284 0.6000000238418579 0.11999999731779099
v 0.8799999952316284 0.6000000238418579 0.1599999964237213
v 0.8799999952316284 0.6399999856948853 0.11999999731779099
v 0.9200000166893005 0.6399999856948853 0.11999999731779099
v 0.8799999952316284 0.6399999856948853 0.1599999964237213
v 0.9200000166893005 0.6399999856948853 0.1599999964237213
v 0.8799999952316284 0.6000000238418579 0.1599999964237213
v 0.9200000166893005 0.6000000238418579 0.1599999964237213
v 0.8799999952316284 0.6000000238418579 0.11999999731779099
v 0.9200000166893005 0.6000000238418579 0.11999999731779099
v 0.8799999952316284 0.6399999856948853 0.1599999964237213
v 0.9200000166893005 0.6399999856948853 0.1599999964237213
v 0.8799999952316284 0.6000000238418579 0.1599999964237213
v 0.9200000166893005 0.6000000238418579 0.1599999964237213
v 0.9200000166893005 0.6399999856948853 0.11999999731779099
v 0.8799999952316284 0.6399999856948853 0.11999999731779099
v 0.9200000166893005 0.6000000238418579 0.11999999731779099
v 0.8799999952316284 0.6000000238418579 0.11999999731779099
f 148 150 149
f 150 151 149
f 152 154 153
f 154 155 153
f 156 158 157
f 158 159 157
f 160 162 161
f 162 163 161
f 164 166 165
f 166 167 165
f 168 170 169
f 170 171 169
